<mxfile host="Electron" modified="2024-10-30T17:25:05.170Z" agent="Mozilla/5.0 (Windows NT 10.0; Win64; x64) AppleWebKit/537.36 (KHTML, like Gecko) draw.io/24.6.4 Chrome/124.0.6367.207 Electron/30.0.6 Safari/537.36" etag="QB4BawuHYU4Obcw0YXME" version="24.6.4" type="device">
  <diagram name="第 1 页" id="XsR3ncLrPXC3dTy0FcWf">
    <mxGraphModel dx="1050" dy="629" grid="1" gridSize="10" guides="1" tooltips="1" connect="1" arrows="1" fold="1" page="1" pageScale="1" pageWidth="827" pageHeight="1169" math="0" shadow="0">
      <root>
        <mxCell id="0" />
        <mxCell id="1" parent="0" />
        <mxCell id="FKfBZnsISCD7llRRQSE3-6" style="edgeStyle=orthogonalEdgeStyle;rounded=0;orthogonalLoop=1;jettySize=auto;html=1;exitX=0.5;exitY=1;exitDx=0;exitDy=0;" parent="1" source="FKfBZnsISCD7llRRQSE3-1" target="FKfBZnsISCD7llRRQSE3-2" edge="1">
          <mxGeometry relative="1" as="geometry" />
        </mxCell>
        <mxCell id="FKfBZnsISCD7llRRQSE3-1" value="Iterable&lt;br&gt;迭代能力" style="rounded=1;whiteSpace=wrap;html=1;" parent="1" vertex="1">
          <mxGeometry x="476" y="80" width="120" height="60" as="geometry" />
        </mxCell>
        <mxCell id="FKfBZnsISCD7llRRQSE3-8" style="edgeStyle=none;rounded=0;orthogonalLoop=1;jettySize=auto;html=1;exitX=0.5;exitY=1;exitDx=0;exitDy=0;entryX=0.5;entryY=0;entryDx=0;entryDy=0;" parent="1" source="FKfBZnsISCD7llRRQSE3-2" target="FKfBZnsISCD7llRRQSE3-3" edge="1">
          <mxGeometry relative="1" as="geometry" />
        </mxCell>
        <mxCell id="FKfBZnsISCD7llRRQSE3-9" style="edgeStyle=none;rounded=0;orthogonalLoop=1;jettySize=auto;html=1;exitX=0.5;exitY=1;exitDx=0;exitDy=0;entryX=0.5;entryY=0;entryDx=0;entryDy=0;" parent="1" source="FKfBZnsISCD7llRRQSE3-2" target="FKfBZnsISCD7llRRQSE3-5" edge="1">
          <mxGeometry relative="1" as="geometry" />
        </mxCell>
        <mxCell id="3cvB8sYlSlibo88fS9eH-6" style="edgeStyle=none;rounded=0;orthogonalLoop=1;jettySize=auto;html=1;exitX=0.5;exitY=1;exitDx=0;exitDy=0;entryX=0.5;entryY=0;entryDx=0;entryDy=0;" parent="1" source="FKfBZnsISCD7llRRQSE3-2" target="3cvB8sYlSlibo88fS9eH-1" edge="1">
          <mxGeometry relative="1" as="geometry" />
        </mxCell>
        <mxCell id="FKfBZnsISCD7llRRQSE3-2" value="Collection" style="rounded=1;whiteSpace=wrap;html=1;" parent="1" vertex="1">
          <mxGeometry x="476" y="180" width="120" height="60" as="geometry" />
        </mxCell>
        <mxCell id="FKfBZnsISCD7llRRQSE3-10" style="edgeStyle=none;rounded=0;orthogonalLoop=1;jettySize=auto;html=1;exitX=0.5;exitY=1;exitDx=0;exitDy=0;entryX=0.5;entryY=0;entryDx=0;entryDy=0;" parent="1" source="FKfBZnsISCD7llRRQSE3-3" target="FKfBZnsISCD7llRRQSE3-4" edge="1">
          <mxGeometry relative="1" as="geometry" />
        </mxCell>
        <mxCell id="FKfBZnsISCD7llRRQSE3-3" value="AbstractCollection" style="rounded=1;whiteSpace=wrap;html=1;fillColor=#ffe6cc;strokeColor=#d79b00;" parent="1" vertex="1">
          <mxGeometry x="471" y="290" width="130" height="60" as="geometry" />
        </mxCell>
        <mxCell id="FKfBZnsISCD7llRRQSE3-18" style="edgeStyle=none;rounded=0;orthogonalLoop=1;jettySize=auto;html=1;exitX=0.5;exitY=1;exitDx=0;exitDy=0;entryX=0.5;entryY=0;entryDx=0;entryDy=0;" parent="1" source="FKfBZnsISCD7llRRQSE3-4" target="FKfBZnsISCD7llRRQSE3-15" edge="1">
          <mxGeometry relative="1" as="geometry" />
        </mxCell>
        <mxCell id="FKfBZnsISCD7llRRQSE3-25" style="edgeStyle=none;rounded=0;orthogonalLoop=1;jettySize=auto;html=1;exitX=0.5;exitY=1;exitDx=0;exitDy=0;entryX=0.5;entryY=0;entryDx=0;entryDy=0;" parent="1" source="FKfBZnsISCD7llRRQSE3-4" target="FKfBZnsISCD7llRRQSE3-22" edge="1">
          <mxGeometry relative="1" as="geometry" />
        </mxCell>
        <mxCell id="FKfBZnsISCD7llRRQSE3-4" value="AbstractList" style="rounded=1;whiteSpace=wrap;html=1;fillColor=#ffe6cc;strokeColor=#d79b00;" parent="1" vertex="1">
          <mxGeometry x="476" y="410" width="120" height="60" as="geometry" />
        </mxCell>
        <mxCell id="FKfBZnsISCD7llRRQSE3-12" style="edgeStyle=none;rounded=0;orthogonalLoop=1;jettySize=auto;html=1;exitX=0.5;exitY=1;exitDx=0;exitDy=0;entryX=0.5;entryY=0;entryDx=0;entryDy=0;" parent="1" source="FKfBZnsISCD7llRRQSE3-5" target="FKfBZnsISCD7llRRQSE3-4" edge="1">
          <mxGeometry relative="1" as="geometry" />
        </mxCell>
        <mxCell id="3cvB8sYlSlibo88fS9eH-11" style="edgeStyle=none;rounded=0;orthogonalLoop=1;jettySize=auto;html=1;exitX=0.5;exitY=1;exitDx=0;exitDy=0;entryX=0.5;entryY=0;entryDx=0;entryDy=0;" parent="1" source="FKfBZnsISCD7llRRQSE3-5" target="3cvB8sYlSlibo88fS9eH-10" edge="1">
          <mxGeometry relative="1" as="geometry" />
        </mxCell>
        <mxCell id="FKfBZnsISCD7llRRQSE3-5" value="List" style="rounded=1;whiteSpace=wrap;html=1;" parent="1" vertex="1">
          <mxGeometry x="304" y="290" width="100" height="60" as="geometry" />
        </mxCell>
        <mxCell id="FKfBZnsISCD7llRRQSE3-19" style="edgeStyle=none;rounded=0;orthogonalLoop=1;jettySize=auto;html=1;exitX=0.5;exitY=1;exitDx=0;exitDy=0;entryX=0.5;entryY=0;entryDx=0;entryDy=0;" parent="1" source="FKfBZnsISCD7llRRQSE3-15" target="FKfBZnsISCD7llRRQSE3-16" edge="1">
          <mxGeometry relative="1" as="geometry" />
        </mxCell>
        <mxCell id="FKfBZnsISCD7llRRQSE3-15" value="Vector&lt;br&gt;动态数组、线程安全" style="rounded=1;whiteSpace=wrap;html=1;fillColor=#d5e8d4;strokeColor=#82b366;" parent="1" vertex="1">
          <mxGeometry x="289" y="540" width="130" height="60" as="geometry" />
        </mxCell>
        <mxCell id="FKfBZnsISCD7llRRQSE3-16" value="Stack&lt;br&gt;栈" style="rounded=1;whiteSpace=wrap;html=1;fillColor=#d5e8d4;strokeColor=#82b366;" parent="1" vertex="1">
          <mxGeometry x="294.5" y="650" width="119" height="60" as="geometry" />
        </mxCell>
        <mxCell id="FKfBZnsISCD7llRRQSE3-22" value="LinkedList&lt;br&gt;双向链表" style="rounded=1;whiteSpace=wrap;html=1;fillColor=#d5e8d4;strokeColor=#82b366;" parent="1" vertex="1">
          <mxGeometry x="664" y="540" width="110" height="60" as="geometry" />
        </mxCell>
        <mxCell id="FKfBZnsISCD7llRRQSE3-23" value="ArrayList&lt;br&gt;动态数组" style="rounded=1;whiteSpace=wrap;html=1;fillColor=#d5e8d4;strokeColor=#82b366;" parent="1" vertex="1">
          <mxGeometry x="479" y="540" width="122" height="60" as="geometry" />
        </mxCell>
        <mxCell id="FKfBZnsISCD7llRRQSE3-24" style="edgeStyle=none;rounded=0;orthogonalLoop=1;jettySize=auto;html=1;exitX=0.5;exitY=1;exitDx=0;exitDy=0;entryX=0.445;entryY=0.02;entryDx=0;entryDy=0;entryPerimeter=0;" parent="1" source="FKfBZnsISCD7llRRQSE3-4" target="FKfBZnsISCD7llRRQSE3-23" edge="1">
          <mxGeometry relative="1" as="geometry" />
        </mxCell>
        <mxCell id="3cvB8sYlSlibo88fS9eH-8" style="edgeStyle=none;rounded=0;orthogonalLoop=1;jettySize=auto;html=1;exitX=0.5;exitY=1;exitDx=0;exitDy=0;" parent="1" source="3cvB8sYlSlibo88fS9eH-1" target="3cvB8sYlSlibo88fS9eH-7" edge="1">
          <mxGeometry relative="1" as="geometry" />
        </mxCell>
        <mxCell id="3cvB8sYlSlibo88fS9eH-1" value="Queue" style="rounded=1;whiteSpace=wrap;html=1;" parent="1" vertex="1">
          <mxGeometry x="664" y="290" width="100" height="60" as="geometry" />
        </mxCell>
        <mxCell id="3cvB8sYlSlibo88fS9eH-4" style="edgeStyle=none;rounded=0;orthogonalLoop=1;jettySize=auto;html=1;exitX=0.5;exitY=1;exitDx=0;exitDy=0;entryX=0.429;entryY=0.04;entryDx=0;entryDy=0;entryPerimeter=0;" parent="1" source="3cvB8sYlSlibo88fS9eH-2" target="FKfBZnsISCD7llRRQSE3-23" edge="1">
          <mxGeometry relative="1" as="geometry">
            <mxPoint x="274" y="560" as="targetPoint" />
          </mxGeometry>
        </mxCell>
        <mxCell id="3cvB8sYlSlibo88fS9eH-5" style="edgeStyle=none;rounded=0;orthogonalLoop=1;jettySize=auto;html=1;exitX=0.5;exitY=1;exitDx=0;exitDy=0;entryX=0.5;entryY=0;entryDx=0;entryDy=0;" parent="1" source="3cvB8sYlSlibo88fS9eH-2" target="FKfBZnsISCD7llRRQSE3-15" edge="1">
          <mxGeometry relative="1" as="geometry" />
        </mxCell>
        <mxCell id="3cvB8sYlSlibo88fS9eH-12" style="edgeStyle=none;rounded=0;orthogonalLoop=1;jettySize=auto;html=1;exitX=0.5;exitY=1;exitDx=0;exitDy=0;entryX=0.5;entryY=0;entryDx=0;entryDy=0;" parent="1" source="3cvB8sYlSlibo88fS9eH-2" target="3cvB8sYlSlibo88fS9eH-10" edge="1">
          <mxGeometry relative="1" as="geometry" />
        </mxCell>
        <mxCell id="3cvB8sYlSlibo88fS9eH-2" value="RandomAccess&lt;br&gt;随机访问" style="rounded=1;whiteSpace=wrap;html=1;" parent="1" vertex="1">
          <mxGeometry x="84" y="290" width="120" height="60" as="geometry" />
        </mxCell>
        <mxCell id="3cvB8sYlSlibo88fS9eH-7" value="Deque&lt;br&gt;双端队列" style="rounded=1;whiteSpace=wrap;html=1;" parent="1" vertex="1">
          <mxGeometry x="664" y="410" width="100" height="60" as="geometry" />
        </mxCell>
        <mxCell id="3cvB8sYlSlibo88fS9eH-9" style="edgeStyle=none;rounded=0;orthogonalLoop=1;jettySize=auto;html=1;exitX=0.5;exitY=1;exitDx=0;exitDy=0;entryX=0.45;entryY=0;entryDx=0;entryDy=0;entryPerimeter=0;" parent="1" source="3cvB8sYlSlibo88fS9eH-7" target="FKfBZnsISCD7llRRQSE3-22" edge="1">
          <mxGeometry relative="1" as="geometry" />
        </mxCell>
        <mxCell id="3cvB8sYlSlibo88fS9eH-10" value="CopyOnWriteArrayList&lt;br&gt;JUC、写时复制、线程安全" style="rounded=1;whiteSpace=wrap;html=1;fillColor=#d5e8d4;strokeColor=#82b366;" parent="1" vertex="1">
          <mxGeometry x="54" y="540" width="180" height="60" as="geometry" />
        </mxCell>
      </root>
    </mxGraphModel>
  </diagram>
</mxfile>
